<svg fill="#FAB005" xmlns="http://www.w3.org/2000/svg"  viewBox="0 0 50 50" width="50px" height="50px"><path d="M 25 2 C 12.311335 2 2 12.311335 2 25 C 2 37.688665 12.311335 48 25 48 C 37.688665 48 48 37.688665 48 25 C 48 12.311335 37.688665 2 25 2 z M 25 4 C 36.607335 4 46 13.392665 46 25 C 46 36.607335 36.607335 46 25 46 C 13.392665 46 4 36.607335 4 25 C 4 13.392665 13.392665 4 25 4 z M 25 6 C 14.513273 6 6 14.513273 6 25 C 6 35.486727 14.513273 44 25 44 C 35.486727 44 44 35.486727 44 25 C 44 14.513273 35.486727 6 25 6 z M 25 8 C 34.407273 8 42 15.592727 42 25 C 42 34.407273 34.407273 42 25 42 C 15.592727 42 8 34.407273 8 25 C 8 15.592727 15.592727 8 25 8 z M 25 10 C 16.714899 10 10 16.714899 10 25 C 10 33.285101 16.714899 40 25 40 C 33.285101 40 40 33.285101 40 25 C 40 16.714899 33.285101 10 25 10 z M 25 12 C 32.208899 12 38 17.791101 38 25 C 38 32.208899 32.208899 38 25 38 C 17.791101 38 12 32.208899 12 25 C 12 17.791101 17.791101 12 25 12 z M 25 14 C 18.919382 14 14 18.919382 14 25 C 14 31.080618 18.919382 36 25 36 C 31.080618 36 36 31.080618 36 25 C 36 18.919382 31.080618 14 25 14 z M 23.894531 16.074219 L 22.275391 21 L 16.931641 21 C 18.239135 18.340924 20.81236 16.444796 23.894531 16.074219 z M 26.105469 16.074219 C 29.18764 16.444796 31.760865 18.340924 33.068359 21 L 27.724609 21 L 26.105469 16.074219 z M 25 19.111328 L 26.050781 22.3125 A 1.0001 1.0001 0 0 0 27 23 L 30.46875 23 L 27.669922 25.111328 A 1.0001 1.0001 0 0 0 27.322266 26.216797 L 28.380859 29.486328 L 25.585938 27.462891 A 1.0001 1.0001 0 0 0 24.414062 27.462891 L 21.619141 29.486328 L 22.677734 26.216797 A 1.0001 1.0001 0 0 0 22.330078 25.111328 L 19.53125 23 L 23 23 A 1.0001 1.0001 0 0 0 23.949219 22.3125 L 25 19.111328 z M 16.222656 23.009766 L 20.556641 26.279297 L 18.841797 31.578125 C 17.092279 29.941324 16 27.612746 16 25 C 16 24.313963 16.080598 23.649954 16.222656 23.009766 z M 33.777344 23.009766 C 33.919402 23.649954 34 24.313963 34 25 C 34 27.612746 32.907721 29.941324 31.158203 31.578125 L 29.443359 26.279297 L 33.777344 23.009766 z M 25 29.507812 L 29.529297 32.787109 C 28.201528 33.554845 26.659358 34 25 34 C 23.340642 34 21.798472 33.554845 20.470703 32.787109 L 25 29.507812 z"/></svg>